<?xml version="1.0"?>
<svg xmlns="http://www.w3.org/2000/svg" xmlns:xlink="http://www.w3.org/1999/xlink" xmlns:svgjs="http://svgjs.com/svgjs" version="1.1" width="512" height="512" x="0" y="0" viewBox="0 0 512 512" style="enable-background:new 0 0 512 512" xml:space="preserve" class=""><g><link type="text/css" rel="stylesheet" id="dark-mode-custom-link"/><link type="text/css" rel="stylesheet" id="dark-mode-general-link"/><style lang="en" type="text/css" id="dark-mode-custom-style"/><style lang="en" type="text/css" id="dark-mode-native-style"/><g xmlns="http://www.w3.org/2000/svg"><path d="m426 358.4c-5.5 0-10.7.8-15.7 2.3l-121.9-218c13.1-9.9 21.6-25.5 21.6-43.2 0-29.8-24.2-54-54-54s-54 24.2-54 54c0 17.3 8.2 32.8 20.9 42.7l-126.4 217.2c-3.4-.7-6.9-1-10.5-1-29.8 0-54 24.2-54 54s24.2 54 54 54c25.3 0 46.4-17.4 52.4-40.8h235.3c5.9 23.4 27.1 40.8 52.4 40.8 29.8 0 54-24.2 54-54-.1-29.8-24.3-54-54.1-54zm-211.2-258.8c0-22.8 18.5-41.2 41.2-41.2s41.2 18.5 41.2 41.2c0 22.8-18.5 41.2-41.2 41.2-22.8 0-41.2-18.4-41.2-41.2zm-128.8 354c-22.8 0-41.2-18.4-41.2-41.2s18.4-41.2 41.2-41.2c22.7 0 41.2 18.5 41.2 41.2 0 22.8-18.4 41.2-41.2 41.2zm54-40.8c0-.1 0-.3 0-.4 0-21.6-12.7-40.3-31-48.9l124.9-214.7c6.8 3 14.2 4.7 22.1 4.7 7.6 0 14.8-1.6 21.3-4.4l121.2 216.7c-15.9 9.4-26.5 26.7-26.5 46.5v.4h-232zm286 40.8c-22.8 0-41.2-18.4-41.2-41.2s18.4-41.2 41.2-41.2c22.7 0 41.2 18.5 41.2 41.2 0 22.8-18.4 41.2-41.2 41.2z" fill="#f2b077" data-original="#000000" style="" class=""/><path d="m195.7 257.2c-11 0-20 8.9-20 20 0 11 8.9 20 20 20 7.2 0 13.8-3.8 17.4-10 1.8-3 2.7-6.5 2.7-10-.1-11-9.1-19.9-20.1-20zm-.1 27.3c-4 0-7.2-3.2-7.2-7.2s3.2-7.2 7.2-7.2c1.3 0 2.5.3 3.6.9 2.2 1.3 3.6 3.7 3.6 6.3 0 4-3.2 7.2-7.2 7.2z" fill="#f2b077" data-original="#000000" style="" class=""/><path d="m185.6 329.6c-6.2 3.6-10.1 10.2-10.1 17.4 0 11 9 20 20.1 19.9 3.5 0 6.9-.9 9.9-2.7 9.6-5.5 12.9-17.7 7.4-27.3-5.5-9.5-17.7-12.8-27.3-7.3zm13.6 23.6c-.1.1-.2.1-.3.1-3.5 1.9-7.9.6-9.8-2.8-1.9-3.5-.6-7.9 2.8-9.8 3.4-2 7.8-.8 9.8 2.6 2.2 3.5 1 7.9-2.5 9.9z" fill="#f2b077" data-original="#000000" style="" class=""/><path d="m256 361.8c-11 0-20 9-20 20s9 20 20 20 20-9 20-20-9-20-20-20zm0 27.2c-4 0-7.2-3.2-7.2-7.2s3.2-7.2 7.2-7.2 7.2 3.2 7.2 7.2-3.2 7.2-7.2 7.2z" fill="#f2b077" data-original="#000000" style="" class=""/><path d="m316.3 326.9c-11.1 0-20 9-20 20.1s9 20 20.1 20c1.8 0 3.5-.2 5.2-.7 8.8-2.4 14.8-10.3 14.8-19.4 0-11.1-9-20-20.1-20zm6.3 23.6c-2 3.4-6.4 4.6-9.8 2.6-1.7-.9-2.9-2.5-3.4-4.4-.2-.6-.2-1.2-.2-1.9 0-4 3.2-7.2 7.2-7.2 1.3 0 2.5.3 3.6 1 3.4 2.1 4.6 6.5 2.6 9.9z" fill="#f2b077" data-original="#000000" style="" class=""/><path d="m316.4 297.2c3.5 0 6.9-.9 10-2.7 6.2-3.6 10-10.2 10-17.4 0-11-9-20-20-20s-20 9-20 20c0 11.2 9 20.2 20 20.1zm0-27.1c2.6 0 5 1.4 6.2 3.6.6 1.1 1 2.3 1 3.6 0 4-3.2 7.2-7.2 7.2s-7.2-3.2-7.2-7.2 3.2-7.2 7.2-7.2z" fill="#f2b077" data-original="#000000" style="" class=""/><path d="m256 262.4c11 0 20-9 20-20s-9-20-20-20-20 9-20 20 9 20 20 20zm0-27.2c4 0 7.2 3.2 7.2 7.2s-3.2 7.2-7.2 7.2-7.2-3.2-7.2-7.2 3.2-7.2 7.2-7.2z" fill="#f2b077" data-original="#000000" style="" class=""/><path d="m255.9 292c-11.1 0-20 9.1-20 20.1 0 11.1 9.1 20 20.1 20 3.5 0 6.9-.9 10-2.7 6.2-3.6 10-10.3 10-17.4 0-11.1-9.1-20.1-20.1-20zm3.7 26.3c-3.4 1.9-7.6.7-9.6-2.6-2.1-3.4-1-7.8 2.4-9.9 1.1-.6 2.3-1 3.6-1 2.6 0 5 1.4 6.3 3.6 1.9 3.6.8 8-2.7 9.9z" fill="#f2b077" data-original="#000000" style="" class=""/></g></g></svg>
